/* XPM */
static char *eb68e9eaf0d84979d45a4582085fc322YUdpu7GSnoa9bnJo[] = {
/* columns rows colors chars-per-pixel */
"22 16 8 1 ",
"  c None",
". c #3F3851",
"X c #A34F68",
"o c #BB626B",
"O c #D18679",
"+ c #DC9D88",
"@ c #E6B698",
"# c #EFDCBE",
/* pixels */
" ...................  ",
".##@#.###@###OO+.O++. ",
".@@@@@@@@@@@@OOOOOOO. ",
"..................... ",
".OO........OOo.....o. ",
".@+..oo.o..+@O.X...O. ",
".@@..OO.Oo.@@O.X.X.O. ",
".+@.OO+.OO.@+O.Xoo.O. ",
".+@.+.+OO+.@+O.ooo.O. ",
".@@.+.OO.+.@@O..oX.O. ",
".@@.O.OO.O.@@O..o..O. ",
".##.oOOo.o.##+.Xo..+. ",
"..................... ",
".@@@@@++@@@.@OoOOOOO. ",
".++.+@@@@@++@OOOoo.o. ",
" ...................  "
};
