/* XPM */
static char *c0a962c7215f44d3fd773c5f46fd2abdNihs4JDPNEMOxrKP[] = {
/* columns rows colors chars-per-pixel */
"64 64 13 1 ",
"  c None",
". c #3F3851",
"X c #89365C",
"o c #9E3B57",
"O c #AE444E",
"+ c #BF5753",
"@ c #D25654",
"# c #CD7363",
"$ c #E27F6D",
"% c #EDA27F",
"& c #FBCA97",
"* c #FFEAB7",
"= c #FFFAD6",
/* pixels */
".&&&&&$$..XOOO+O.O#####O.................O#####O.+OOOX..$$&&&&*.",
".&&&&%$$..OOOO##.#######.................#######.#OOOO..$$&&&&=.",
".%&&%$$$..XOOO+O.O#####O.................O#####O.+OOOX..$$&&&&=.",
".$$$$$$@................................................$$&&&&*.",
"............X+#####O........................O#####+X....$$&&&&=.",
".$$$$$$@....O#######........................#######O....$$&&&&*.",
".%&&%$$$....X+#####O........................O#####+X....$$&&&&&.",
".&&&&%$$................................................$$&&&&*.",
".&&&&&$$..XOOO+O.O#####O.........................+OOOX..$$&&&&*.",
".*&&&&$$..OOOO##.#######.........................#OOOO..$$%&&&&.",
".=&&&&$$..XOOO+O.O#####O.........................+OOOX..$$$%&&%.",
".*&&&&$$................................................@$$$$$$.",
".*&&&&$$....X+#####O.........O####O.....+#O.O#####+X............",
".&&&&&$$....O#######.........######.....###.#######O....@$$$$$$.",
".&&&&%$$....X+#####O.........O####O.....O#+.O#####+X....$$$%&&%.",
".%&&%$$$................................................$$%&&&&.",
".$$$$$$@..XOOO+O.O######O................O#####O.+OOOX..$$&&&&&.",
"..........OOOO##.#######+.+####+.+#####+.+######.#OOOO..$$&&&&*.",
".$$$$$$@..XOOO+O.O+OOOOOX.XOOOOX.XOOOOOX.XOOO+#O.+OOOX..$$&&&&*.",
".%&&%$$$................................................$$&&&&=.",
".&&&&%$$....X+####+X..XOOOX..XOOOOOX........X+####+X....$$&&&&*.",
".*&&&&$$....O######O........................O######O....$$&&&&&.",
".*&&&&$$....X+####+X........................X+####+X....$$%&&&&.",
".&&&&&$$................@$$$$$@..@$$$$$@................$$$%&&%.",
".*&&&&$$..XOOO+O.O+OOX..$$$$$$$..$$$$$$$..XOO+#O.+OOOX..@$$$$$$.",
".=&&&&$$..OOOO##.##OOO..$$$%&&&..&&&%$$$..OOO###.#OOOO..........",
".*&&&&$$..XOOO+O.O+OOX..$$%&&&&..&&&&%$$..XOO+#O.+OOOX..@$$$$$$.",
".=&&&&$$................$$&&&&&..&&&&&$$................$$$%&&%.",
".=&&&&$$....X+####+X....$$&&&&&..&&&&&$$....X+####+X....$$%&&&&.",
".*&&&&$$....O######O....@$&&*=*..*=*&&$@....O######O....$$&&&&&.",
".&&&&&$$....X+####+X........................X+####+X....$$&&&&*.",
".*&&&&$$................................................$$&&&&&.",
".&&&&&$$..XOOO+O.O+OOX..@$&&*=*..*=*&&$@..XOO+#O.+OOOX..$$&&&&*.",
".&&&&%$$..OOOO##.##OOO..$$&&&&&..&&&&&$$..OOO###.#OOOO..$$&&&&=.",
".%&&%$$$..XOOO+O.O+OOX..$$&&&&&..&&&&&$$..XOO+#O.+OOOX..$$&&&&=.",
".#$$$$$@................$$%&&&&..&&&&%$$................$$&&&&*.",
"............X+####+X....$$$%&&&..&&&%$$$....X+####+X....$$&&&&=.",
".#$$$$$@....O######O....$$$$$$$..$$$$$$$....O######O....$$&&&&*.",
".%&&%$$$....X+####+X....@$$$$$@..@$$$$$@....X+####+X....$$&&&&&.",
".&&&&%$$................................................$$&&&&*.",
".&&&&&$$..XOOO+OO.........................XOO+#O.+OOOX..$$&&&&*.",
".*&&&&$$..OOOO###................XoOOOOoX.OOO###.#OOOO..$$%&&&&.",
".=&&&&$$..XOOO+OO.........XOOOOX.oOOOOOOo.XOO+#O.+OOOX..$$$%&&%.",
".*&&&&$$................................................@$$$$$$.",
".*&&&&$$....X+######O.XOOOOX.XOOOOOOX.XOOOOX.O####+X............",
".&&&&&$$....O########.+####+.+######+.+####+.######O....@$$$$$$.",
".&&&&%$$....X+######O.O####O.O######O.O####O.O####+X....$$$%&&%.",
".%&&%$$$................................................$$%&&&&.",
".#$$$$$@..XOOO+O.O#####O.................O#####O.+OOOX..$$&&&&&.",
"..........OOOO##.#######.................#######.#OOOO..$$&&&&*.",
".#$$$$$@..XOOO+O.O#####O.................O#####O.+OOOX..$$&&&&*.",
".%&&%$$$................................................$$&&&&=.",
".&&&&%$$....X+#####O.O##O....O####O.........O#####+X....$$&&&&*.",
".*&&&&$$....O#######.####....######.........#######O....$$&&&&&.",
".*&&&&$$....X+#####O.O##O....O####O.........O#####+X....$$%&&&&.",
".&&&&&$$................................................$$$%&&%.",
".*&&&&$$..XOOO+O.O#####O.................O#####O.+OOOX..@$$$$$$.",
".=&&&&$$..OOOO##.#######.................#######.#OOOO..........",
".*&&&&$$..XOOO+O.O#####O.................O#####O.+OOOX..@$$$$$$.",
".=&&&&$$................................................$$$%&&%.",
".=&&&&$$....X+#####O.O##O...............+#O.O#####+X....$$%&&&&.",
".*&&&&$$....O#######.####...............###.#######O....$$&&&&&.",
".&&&&&$$....X+#####O.O##O...............O#+.O#####+X....$$&&&&*.",
"                                                                "
};
