/* XPM */
static char *_a22898806424b3181e623e5f402e1c2ICLrbpVgdf2Nqo3J[] = {
/* columns rows colors chars-per-pixel */
"64 64 8 1 ",
"  c None",
". c #6E5967",
"X c #926475",
"o c #AD707B",
"O c #B77F83",
"+ c #C39490",
"@ c #D1B1A5",
"# c #DCCABE",
/* pixels */
" ...............................................................",
" o++++@@@@@++@+++++++++++++++++o.o++++@@@@@++@+++++++++++++++++o",
" +++++++++++++++++++++++++++++++.+++++++++++++++++++++++++++++++",
" ++++++++++++++++++++o+ooooo++...++++++++++++++++++++o+ooooo++..",
" +++++++++++++++++++++@+@@@++++O.+++++++++++++++++++++@+@@@++++O",
" +++++++++++++++++++++++++++++++.+++++++++++++++++++++++++++++++",
" +++++++++++++++++++++++++++++++.+++++++++++++++++++++++++++++++",
" o+++++++++++++++++++++++++++++o.o+++++++++++++++++++++++++++++o",
" ...............................................................",
" @@@+++++++++++o.o+++@+@@@@@+++++@@@+++++++++++o.o+++@+@@@@@++++",
" +++++++++++++++.+++++++++++++++++++++++++++++++.+++++++++++++++",
" +++++++oo+o++...+++++++++++++++++++++++oo+o++...+++++++++++++++",
" ++++++@+@@++++O.++++++++++++++++++++++@+@@++++O.+++++++++++++++",
" +++++++++++++++.+++++++++++++++++++++++++++++++.+++++++++++++++",
" +++++++++++++++.+++++++++++++++++++++++++++++++.+++++++++++++++",
" ++++++++++++++o.o+++++++++++++++++++++++++++++o.o++++++++++++++",
" ...............................................................",
" o+++@+@@###@+@@+++++++++++++++o.o+++@+@@###@+@@+++++++++++++++o",
" +++++++++++++++++++++++++++++++.+++++++++++++++++++++++++++++++",
" +++++++++++++++++++++++++++++++.+++++++++++++++++++++++++++++++",
" ++++++++++++++++++++++++++++++O.++++++++++++++++++++++++++++++O",
" ++++++++++++++++++++++oo+o+.....++++++++++++++++++++++oo+o+....",
" ++++++++++++++++++++++++@+@@+++.++++++++++++++++++++++++@+@@+++",
" o+++++++++++++++++++++++++++++o.o+++++++++++++++++++++++++++++o",
" ...............................................................",
" ++++++++++++++o.o+++@+@@@###@@++++++++++++++++o.o+++@+@@@###@@+",
" +++++++++++++++.+++++++++++++++++++++++++++++++.+++++++++++++++",
" ++++ooo++o++....++++++OooooooooooooooooooO+++++.+++++++++++++++",
" +++++@+++@@+@+O.+++++OooooooooooooooooooooO++++.+++++++++++++++",
" +++++++++++++++.+++++oooooooooooooooooooooo++++.+++++++++++++++",
" +++++++++++++++.+++++oooooooX......Xooooooo++++.+++++++++++++++",
" ++++++++++++++o.o+++OooooooX........XooooooO++o.o++++++++++++++",
" ...............................................................",
" o++++@@@@@++@+++++++OooooX............XooooO++++++++++++++++++o",
" +++++++++++++++++++++ooooo............ooooo++++++++++++++++++++",
" +++++++++++++++++++++oooooX..........Xooooo+++++++++o+ooooo++..",
" +++++++++++++++++++++oooooooooX.Xoooooooooo++++++++++@+@@@++++O",
" +++++++++++++++++++++oooooooooo.ooooooooooo++++++++++++++++++++",
" +++++++++++++++++++++oooooooooo.ooooooooooo++++++++++++++++++++",
" o+++++++++++++++++++OoooooooooX.XooooooooooO++++++++++++++++++o",
" ...............................................................",
" @@@+++++++++++o.o++++OooooooooooooooooooooO+++o.o+++@+@@@@@++++",
" +++++++++++++++.++++++OooooooooooooooooooO+++++.+++++++++++++++",
" +++++++oo+o++...+++++++++++++++++++++++++++++++.+++++++++++++++",
" ++++++@+@@++++O.+++++++++++++++++++++++oo+o+....+++++++++++++++",
" +++++++++++++++.++++++++++++++++++++++@+@@++++O.+++++++++++++++",
" +++++++++++++++.+++++++++++++++++++++++++++++++.+++++++++++++++",
" ++++++++++++++o.o+++++++++++++++++++++++++++++o.o++++++++++++++",
" ...............................................................",
" o+++@+@@###@+@@+++++++++++++++o.o+++@+@@###@+@@+++++++++++++++o",
" +++++++++++++++++++++++++++++++.+++++++++++++++++++++++++++++++",
" +++++++++++++++++++++++++++++++.+++++++++++++++++++++++++++++++",
" ++++++++++++++++++++++++++++++O.++++++++++++++++++++++++++++++O",
" ++++++++++++++++++++++oo+o+.....++++++++++++++++++++++oo+o+....",
" ++++++++++++++++++++++++@+@@+++.++++++++++++++++++++++++@+@@+++",
" o+++++++++++++++++++++++++++++o.o+++++++++++++++++++++++++++++o",
" ...............................................................",
" ++++++++++++++o.o+++@+@@@###@@++++++++++++++++o.o+++@+@@@###@@+",
" +++++++++++++++.+++++++++++++++++++++++++++++++.+++++++++++++++",
" ++++ooo++o++....++++++++++++++++++++ooo++o++....+++++++++++++++",
" +++++@+++@@+@+O.+++++++++++++++++++++@+++@@+@+O.+++++++++++++++",
" +++++++++++++++.+++++++++++++++++++++++++++++++.+++++++++++++++",
" +++++++++++++++.+++++++++++++++++++++++++++++++.+++++++++++++++",
" ++++++++++++++o.o+++++++++++++++++++++++++++++o.o++++++++++++++"
};
