/* XPM */
static char *result[] = {
/* columns rows colors chars-per-pixel */
"38 28 18 1 ",
"  c #3F3851",
". c #25667E",
"X c #E44B3B",
"o c #EF895A",
"O c #F6C27D",
"+ c #5F7D93",
"@ c #298A91",
"# c #37AB9C",
"$ c #768EA1",
"% c #48C38A",
"& c #8CA9B5",
"* c #91EA9C",
"= c #FFEFA9",
"- c #A5C2C7",
"; c #B2D3CF",
": c #F0F7F4",
"> c #F2F7F6",
", c None",
/* pixels */
",,,,,,,,,,,,,,,,,,,,,,,,,,,,,,,,,,,,,,",
",,,,,,,,,,,,,,,,,,,,,,,,,,,,,,,,,,,,,,",
",,,,,,,,,,,,,,,,,,,,,,,,,,,,,,,,,,,,,,",
",,,,,,,,,,,,,,,,,,,,,,,,,,,,,,,,,,,,,,",
",,,,,,,,,,,,,,,,,,,,,,,,,,,,,,,,,,,,,,",
",,,,,,,,,,,,,,,,,,,,,,,,,,,,,,,,,,,,,,",
",,,,,,,,,,,,,,  ,    ,,   ,,,,,,,,,,,,",
",,,,,,,,,,,,, O= =OOo  OoX ,,,,,,,,,,,",
",,,,,,,,,,,,, == =  O  Ooo ,,,,,,,,,,,",
",,,,,,,,,,,,, O=O=OOOOoOoX ,,,,,,,,,,,",
",,,,,,,,,,,,,              ,,,,,,,,,,,",
",,,,,,,,,,,, >> ->- --$ $++ ,,,,,,,,,,",
",,,,,,,,,,,,                ,,,,,,,,,,",
",,,,,,,,,,,,, .@@@@@@@@@@.  ,,,,,,,,,,",
",,,,,,,,,,,,  #%%%%%%%% %@ ,,,,,,,,,,,",
",,,,,,,,,,, : #% #% ## : @ ,,,,,,,,,,,",
",,,,,,,,,,, :: #    # :: @ ,,,,,,,,,,,",
",,,,,,,,,,, ;:& **%* &:; @# ,,,,,,,,,,",
",,,,,,,,,, % &   %%   & #%%% ,,,,,,,,,",
",,,,,,,,,, %%   #%%#   #%%%# ,,,,,,,,,",
",,,,,,,,,,, # .@    @@#%%## ,,,,,,,,,,",
",,,,,,,,,,,,  @@@@@@@#%%%  ,,,,,,,,,,,",
",,,,,,,,,,,,, @#%%%%%%%%%@ ,,,,,,,,,,,",
",,,,,,,,,,,,, @%%%%%%%%%%@ ,,,,,,,,,,,",
",,,,,,,,,,,,, #%%%*%**%%#. ,,,,,,,,,,,",
",,,,,,,,,,,,, %%       @@ ,,,,,,,,,,,,",
",,,,,,,,,,,,, % ,,,,,,,  ,,,,,,,,,,,,,",
",,,,,,,,,,,,,  ,,,,,,,,,,,,,,,,,,,,,,,"
};
